<svg width="74" height="74" viewBox="0 0 74 74" fill="none" xmlns="http://www.w3.org/2000/svg">
<path d="M7 0.333336C3.31667 0.333336 0.333334 3.31667 0.333334 7V67C0.333334 70.6833 3.31667 73.6667 7 73.6667H67C70.6833 73.6667 73.6667 70.6833 73.6667 67V7C73.6667 3.31667 70.6833 0.333336 67 0.333336H7ZM21.7135 20.7565H28.3216L40.0078 53.6406H33.6992L30.9193 45.2292H18.8164L15.9909 53.6406H10.0469L21.7135 20.7565ZM24.6953 27.026L20.1836 40.5807H29.5521L25.0859 27.026H24.6953ZM54.181 28.2109C61.291 28.2109 65.5547 32.9257 65.5547 40.7891V42.612H48.1458V42.9049C48.2825 47.0516 50.6727 49.6497 54.3893 49.6497C57.1893 49.6497 59.1292 48.6253 59.9492 46.7786H65.3008C64.2341 51.3153 60.1032 54.1419 54.2266 54.1419C46.8899 54.1419 42.4687 49.2843 42.4687 41.2643C42.4687 33.2443 46.961 28.2109 54.181 28.2109ZM54.1615 32.6901C50.7881 32.6901 48.4187 35.108 48.1654 38.7513H59.9036C59.787 35.0613 57.5515 32.6901 54.1615 32.6901Z" fill="#2A7AE4"/>
</svg>
