<svg width="88" height="92" viewBox="0 0 88 92" fill="none" xmlns="http://www.w3.org/2000/svg">
<path d="M43.8594 0.00391332C43.6396 0.00491332 43.418 0.0412883 43.207 0.113288L1.34375 14.6836C0.455751 14.9916 -0.100374 15.8785 0.0156265 16.8125L6.63281 71.0586C6.71081 71.7006 7.09016 72.2662 7.66016 72.5742L42.957 91.7578C43.253 91.9198 43.5822 92 43.9102 92C44.2402 92 44.5731 91.9179 44.8711 91.7539L80.3477 72.3086C80.9117 71.9986 81.2951 71.4349 81.3711 70.7969L87.9844 16.5547C88.1004 15.6167 87.5386 14.722 86.6406 14.418L44.5078 0.105476C44.2978 0.0354758 44.0791 0.00291332 43.8594 0.00391332ZM44 10L70 66H61.125L55.5625 54.0156H32.4375L26.875 66H18L44 10ZM44 29L36.1602 46H51.8398L44 29Z" fill="#2A7AE4"/>
</svg>
