<svg width="92" height="78" viewBox="0 0 92 78" fill="none" xmlns="http://www.w3.org/2000/svg">
<path d="M47.5664 0.0390641C47.1763 0.00443905 46.7803 0.00487655 46.3828 0.0468766C44.7888 0.220877 43.3595 1.00591 42.3555 2.25391C40.2815 4.83191 40.6934 8.61741 43.2734 10.6914L49.875 16H15.9219C12.6139 16 9.92188 18.692 9.92188 22C9.92188 25.308 12.6139 28 15.9219 28H30.793L2.3125 51.0195C1.0185 52.0655 0.21116 53.553 0.0351604 55.207C-0.13884 56.861 0.336817 58.4872 1.38282 59.7812C2.42882 61.0753 3.91632 61.8826 5.57032 62.0586C7.22432 62.2326 8.85054 61.7569 10.1445 60.7109L23.9961 49.5156C25.1541 65.3976 39.9279 78 57.9219 78C76.6699 78 91.9219 64.318 91.9219 47.5C91.9219 37.108 86.1037 27.5427 76.3477 21.8867L50.793 1.33985C49.8555 0.586845 48.7368 0.142939 47.5664 0.0390641ZM57.9219 30C67.8459 30 75.9219 36.728 75.9219 45C75.9219 53.272 67.8459 60 57.9219 60C47.9979 60 39.9219 53.272 39.9219 45C39.9219 36.728 47.9979 30 57.9219 30ZM57.9219 34C54.7393 34 51.687 35.0536 49.4366 36.9289C47.1862 38.8043 45.9219 41.3478 45.9219 44C45.9219 46.6522 47.1862 49.1957 49.4366 51.0711C51.687 52.9464 54.7393 54 57.9219 54C61.1045 54 64.1567 52.9464 66.4072 51.0711C68.6576 49.1957 69.9219 46.6522 69.9219 44C69.9219 41.3478 68.6576 38.8043 66.4072 36.9289C64.1567 35.0536 61.1045 34 57.9219 34Z" fill="#2A7AE4"/>
</svg>
