<?xml version="1.0" standalone="no"?>
<!DOCTYPE svg PUBLIC "-//W3C//DTD SVG 20010904//EN"
 "http://www.w3.org/TR/2001/REC-SVG-20010904/DTD/svg10.dtd">
<svg version="1.0" xmlns="http://www.w3.org/2000/svg"
 width="512.000000pt" height="512.000000pt" viewBox="0 0 512.000000 512.000000"
 preserveAspectRatio="xMidYMid meet">

<g transform="translate(0.000000,512.000000) scale(0.100000,-0.100000)"
fill="#000000" stroke="none">
<path d="M2417 5029 c-284 -42 -553 -228 -692 -481 l-37 -68 -753 -2 c-743 -3
-754 -3 -781 -24 -15 -11 -37 -33 -48 -48 -21 -27 -21 -38 -21 -566 0 -528 0
-539 21 -566 11 -15 33 -37 48 -48 26 -20 43 -21 317 -24 l289 -3 104 -138
c86 -114 113 -143 151 -161 85 -41 180 -14 236 68 21 30 24 50 27 134 l4 98
158 0 159 0 5 -32 c3 -18 10 -69 16 -113 7 -44 27 -127 46 -185 18 -57 32
-105 31 -105 -1 -1 -22 -10 -47 -20 -25 -11 -62 -29 -82 -42 -46 -28 -48 -28
-48 -3 0 19 -7 20 -240 20 l-240 0 0 -320 0 -320 63 0 64 0 -64 -317 c-61
-300 -64 -324 -59 -423 5 -122 23 -196 72 -299 74 -158 176 -268 334 -360 49
-29 90 -59 90 -66 0 -59 44 -316 60 -353 27 -60 81 -116 145 -150 l50 -27 765
0 765 0 50 27 c64 34 118 90 145 150 16 37 60 294 60 353 0 6 41 36 90 65 251
148 390 374 406 655 6 95 3 117 -66 459 -39 197 -69 364 -67 371 3 6 25 15 49
18 74 10 219 57 307 98 469 219 763 706 737 1219 -16 330 -139 606 -375 841
-330 331 -779 452 -1231 333 l-94 -25 -68 75 c-217 238 -534 351 -851 305z
m347 -179 c42 -11 118 -41 169 -67 75 -38 109 -64 187 -143 79 -78 105 -112
143 -187 90 -174 90 -179 95 -728 2 -321 0 -513 -8 -579 -37 -322 -220 -629
-479 -805 -64 -44 -81 -49 -81 -27 0 7 -11 30 -25 51 -15 20 -25 38 -23 39 33
19 129 101 179 153 140 146 225 312 264 516 22 116 22 905 0 992 -101 399
-539 609 -902 432 -171 -83 -303 -247 -347 -432 -15 -62 -17 -124 -14 -530 l4
-460 27 -90 c54 -174 130 -307 246 -428 50 -52 146 -134 179 -153 2 -1 -8 -19
-23 -39 -14 -21 -25 -44 -25 -51 0 -22 -17 -17 -81 27 -203 138 -374 376 -443
620 -42 148 -48 246 -44 764 5 549 5 554 95 728 38 75 64 109 143 187 77 78
112 105 185 142 146 75 258 100 411 92 51 -2 126 -13 168 -24z m769 -347 c-16
-21 -37 -51 -47 -67 -20 -32 -23 -31 -51 38 l-15 35 63 14 c34 9 66 16 70 16
5 1 -4 -16 -20 -36z m635 -23 c146 -56 332 -185 417 -287 l27 -33 -214 0 -214
0 -44 92 c-25 50 -73 134 -107 186 -35 52 -63 95 -63 97 0 8 127 -27 198 -55z
m-347 -26 c50 -63 179 -269 179 -286 0 -5 -108 -8 -240 -8 -132 0 -240 3 -240
8 0 33 217 352 240 352 5 0 32 -30 61 -66z m-1116 -84 c186 -64 312 -224 328
-417 l4 -52 -36 28 c-49 39 -154 95 -228 121 -48 17 -64 28 -73 51 -17 40 -99
114 -144 129 -62 20 -166 9 -215 -23 -56 -37 -93 -96 -99 -157 l-5 -50 82 0
c80 0 82 1 92 27 13 34 26 43 63 43 69 0 103 -91 52 -139 -21 -20 -49 -26
-213 -47 -262 -33 -235 -38 -228 49 19 211 131 363 317 433 85 31 219 33 303
4z m-1080 -77 c-13 -50 -25 -147 -25 -203 l0 -55 -88 88 c-48 48 -92 87 -97
87 -13 0 -105 -92 -105 -104 0 -6 57 -68 127 -138 l128 -128 -128 -128 c-70
-70 -127 -132 -127 -137 0 -13 92 -105 104 -105 6 0 50 39 98 87 l88 88 0
-143 0 -142 -240 0 -240 0 0 -155 c0 -85 -2 -155 -4 -155 -2 0 -11 -3 -19 -6
-11 -4 -51 41 -136 155 l-121 161 -300 0 -300 0 0 480 0 480 696 0 696 0 -7
-27z m2460 -350 c28 -94 54 -234 63 -331 l8 -92 -318 0 -318 0 0 240 0 240
274 0 275 0 16 -57z m692 -43 c47 -107 80 -221 89 -316 l7 -64 -276 0 -275 0
-7 68 c-14 148 -47 334 -70 395 -7 16 7 17 241 15 l249 -3 42 -95z m-1908 -84
c39 -26 93 -73 121 -104 l50 -56 -1 -135 c0 -214 -41 -326 -157 -432 -190
-174 -474 -168 -658 16 -112 111 -144 207 -144 438 0 81 3 147 8 147 4 0 110
13 236 29 260 34 295 47 351 132 l30 46 47 -17 c26 -10 78 -39 117 -64z m1286
-483 c-2 -16 -7 -59 -10 -98 -6 -72 -34 -211 -60 -302 l-16 -53 -303 0 -303 0
24 98 c17 68 26 139 30 240 l6 142 318 0 319 0 -5 -27z m715 -1 c0 -85 -46
-253 -101 -369 l-40 -83 -245 0 c-229 0 -245 1 -240 18 30 95 57 246 72 395
l6 67 274 0 274 0 0 -28z m-2681 -411 c33 -27 34 -30 25 -72 l-10 -44 -32 66
c-44 92 -42 99 17 50z m791 23 c0 -3 -14 -36 -32 -73 l-32 -66 -10 44 c-9 42
-8 45 25 72 33 28 49 35 49 23z m-420 -139 c47 0 108 4 135 8 l51 8 17 -88 18
-88 -45 -40 c-42 -37 -132 -97 -166 -110 -19 -7 -125 56 -185 109 l-46 41 18
88 17 88 51 -8 c27 -4 88 -8 135 -8z m1440 -92 c0 -12 -91 -168 -129 -221
l-38 -53 -36 48 c-48 65 -140 153 -207 197 l-55 36 233 0 c127 0 232 -3 232
-7z m523 -82 c-99 -96 -213 -173 -331 -222 -69 -28 -213 -71 -220 -64 -2 1 23
40 54 86 31 46 80 130 107 187 l50 102 216 0 216 -1 -92 -88z m-2712 -73 c101
-157 268 -315 435 -410 l72 -41 4 -53 c6 -72 49 -139 112 -179 44 -27 58 -30
126 -30 68 0 82 3 126 30 63 40 106 108 112 178 4 53 4 53 65 87 157 90 338
257 432 399 29 42 55 71 65 71 10 0 50 -17 91 -37 107 -54 213 -162 268 -273
37 -77 48 -119 117 -460 101 -497 102 -563 13 -746 -43 -88 -111 -171 -183
-222 -57 -41 -56 -60 -15 237 42 308 36 372 -47 470 -30 35 -119 91 -146 91
-16 0 -18 12 -18 110 0 106 1 113 35 180 19 38 35 74 35 80 0 5 -31 25 -69 45
-79 39 -72 43 -125 -62 l-36 -73 0 -135 0 -135 -720 0 -720 0 0 135 0 135 -36
73 c-53 105 -46 101 -125 62 -38 -20 -69 -40 -69 -45 0 -6 16 -42 35 -80 34
-67 35 -74 35 -180 0 -98 -2 -110 -17 -110 -28 0 -117 -56 -147 -91 -83 -98
-89 -162 -47 -470 41 -297 42 -278 -15 -237 -72 51 -140 134 -183 222 -89 184
-88 250 13 746 69 341 80 383 118 460 55 113 160 220 267 273 40 20 82 37 91
37 11 0 32 -22 51 -52z m-451 -10 c0 -6 -20 -41 -45 -77 -25 -36 -61 -102 -80
-146 l-35 -80 0 158 0 157 80 0 c54 0 80 -4 80 -12z m1236 -241 c12 -4 26 -19
32 -33 15 -32 15 -195 1 -228 -26 -55 -112 -55 -138 0 -14 32 -14 196 0 228
18 38 55 49 105 33z m860 -814 c17 -13 39 -39 49 -60 17 -36 17 -44 -35 -432
-28 -218 -54 -406 -57 -419 l-5 -22 -848 0 -848 0 -6 27 c-19 97 -106 801
-101 822 10 38 41 76 77 94 30 15 116 16 888 14 l855 -2 31 -22z m-71 -1125
c-8 -40 -31 -74 -69 -102 -27 -21 -36 -21 -756 -21 -720 0 -729 0 -756 21 -38
28 -61 62 -69 102 l-7 32 832 0 832 0 -7 -32z"/>
<path d="M470 4025 l-185 -185 185 -185 c102 -102 190 -185 195 -185 13 0 105
92 105 105 0 5 -57 67 -127 137 l-128 128 128 128 c70 70 127 132 127 138 0
12 -92 104 -105 104 -6 0 -93 -83 -195 -185z"/>
<path d="M963 3860 l-81 -320 42 -11 c22 -5 56 -14 75 -19 19 -5 36 -8 37 -7
2 1 38 145 82 319 69 276 77 318 63 322 -9 3 -36 10 -61 16 -25 6 -52 13 -61
16 -14 4 -29 -47 -96 -316z"/>
<path d="M2265 3655 c-50 -49 -15 -135 55 -135 41 0 80 39 80 80 0 41 -39 80
-80 80 -19 0 -40 -9 -55 -25z"/>
<path d="M2745 3655 c-16 -15 -25 -36 -25 -55 0 -19 9 -40 25 -55 15 -16 36
-25 55 -25 19 0 40 9 55 25 16 15 25 36 25 55 0 19 -9 40 -25 55 -15 16 -36
25 -55 25 -19 0 -40 -9 -55 -25z"/>
<path d="M2313 3357 c-35 -17 -63 -34 -63 -38 0 -21 73 -107 114 -136 120 -83
272 -83 392 0 41 29 114 115 114 136 0 9 -138 76 -143 70 -2 -2 -13 -18 -25
-36 -26 -37 -95 -73 -142 -73 -48 0 -118 37 -143 76 -12 19 -26 34 -32 33 -5
0 -38 -14 -72 -32z"/>
<path d="M80 2400 l0 -320 240 0 240 0 0 320 0 320 -240 0 -240 0 0 -320z
m320 0 l0 -160 -80 0 -80 0 0 160 0 160 80 0 80 0 0 -160z"/>
<path d="M720 2400 l0 -320 80 0 80 0 0 320 0 320 -80 0 -80 0 0 -320z"/>
<path d="M80 1600 l0 -320 80 0 80 0 0 320 0 320 -80 0 -80 0 0 -320z"/>
<path d="M400 1600 l0 -320 240 0 240 0 0 320 0 320 -240 0 -240 0 0 -320z
m320 0 l0 -160 -80 0 -80 0 0 160 0 160 80 0 80 0 0 -160z"/>
</g>
</svg>
