<svg width="100" height="96" viewBox="0 0 100 96" fill="none" xmlns="http://www.w3.org/2000/svg">
<path d="M40 0C39.264 0 38.5863 0.402781 38.2383 1.05078L32.8633 11.0508C32.6353 11.4768 32.5678 11.9714 32.6758 12.4414L33.8789 17.7461L16.8633 48H13.25C12.528 48 11.8638 48.3895 11.5078 49.0195L0.257819 69.0195C-0.0681812 69.5975 -0.0850562 70.3005 0.210944 70.8945L4.21094 78.8945C4.55094 79.5705 5.24201 80 6.00001 80H15.2344C15.2844 80 14.6275 79.6219 14.2695 79.0039C13.9115 78.3839 13.9096 77.6239 14.2656 77.0039L31.4023 47.2344C31.4143 47.2064 31.4372 47.1862 31.4492 47.1602L52.2656 11.0039C52.6236 10.3839 53.328 10.034 54 10C54.71 10 55.3666 10.3763 55.7266 10.9883L89.7266 68.9883C90.0886 69.6083 90.0904 70.3702 89.7344 70.9922C89.3764 71.6162 88.716 72 88 72H61.2891L56.7539 79.8789L56.0586 80H18L21.4492 86.8945C21.7872 87.5725 22.4764 88 23.2344 88H56.8867L61.0078 95.0156C61.3778 95.6476 62.0445 96 62.7305 96C63.0745 96 63.4242 95.9107 63.7422 95.7227C64.6942 95.1627 65.0131 93.9364 64.4531 92.9844L61.5274 88H90C90.758 88 91.4491 87.5725 91.7891 86.8945L99.7891 70.8945C100.085 70.3005 100.066 69.5975 99.7422 69.0195L63.7422 5.01953C63.3862 4.38953 62.722 4 62 4H57.2344L55.7891 1.10547C55.4511 0.427469 54.758 0 54 0H40ZM54.0156 15.9805L44.1016 33.2031L52.2969 47.1523C52.3109 47.1823 52.3337 47.2083 52.3477 47.2383L53.9805 50.0234L63.8867 32.8203L54.0156 15.9805ZM66.2149 36.793L54.0078 58H78.6445L66.2149 36.793ZM41.8008 37.1914L36.7305 46H46.9766L41.8008 37.1914ZM34.4297 50L19.457 76H24.3242L39.293 50H34.4297ZM39.2813 58.043L28.9414 76H49.8359L39.2813 58.043ZM46.2461 62L49.7734 68H84.5078L80.9922 62H46.2461Z" fill="#2A7AE4"/>
</svg>
