<svg width="88" height="92" viewBox="0 0 88 92" fill="none" xmlns="http://www.w3.org/2000/svg">
<path fill-rule="evenodd" clip-rule="evenodd" d="M45.452 0.263286C44.4586 -0.0877618 43.4043 -0.0877618 42.4108 0.263286C40.2865 1.00512 38.1458 1.68681 35.9928 2.37352C26.4027 5.44112 15.8383 8.8245 6.80481 17.8469L2.54797 22.1074C-0.849322 25.5008 -0.849322 32.1473 2.54797 35.5407L6.73932 39.7211C9.7021 42.6613 12.9342 45.1693 16.3704 47.1946V70.3971C16.3705 73.1724 17.0547 75.883 18.3335 78.1743C19.6123 80.4655 21.426 82.2307 23.5375 83.2389L39.91 91.0583C42.5396 92.3139 45.4584 92.3139 48.088 91.0583L64.4605 83.2389C66.5719 82.2307 68.3857 80.4655 69.6645 78.1743C70.9432 75.883 71.6274 73.1724 71.6275 70.3971V47.2397C75.0406 45.2225 78.2507 42.7263 81.1931 39.8013L81.8603 39.1346V63.911C81.8603 64.9081 82.1837 65.8643 82.7595 66.5693C83.3352 67.2743 84.116 67.6703 84.9302 67.6703C85.7443 67.6703 86.5252 67.2743 87.1009 66.5693C87.6766 65.8643 88 64.9081 88 63.911V28.8241C88 26.3179 87.1486 23.8016 85.45 22.1074L81.2586 17.9271C72.1555 8.85458 61.1491 5.33586 51.8537 2.3685C49.7089 1.6818 47.5723 1.00011 45.452 0.263286ZM28.8544 47.9314C28.4846 47.7346 28.0868 47.6289 27.6836 47.6204C27.2805 47.6119 26.8799 47.7007 26.5047 47.8817C26.1296 48.0628 25.7872 48.3326 25.4972 48.6756C25.2072 49.0187 24.9752 49.4284 24.8145 49.8813C24.6538 50.3341 24.5675 50.8213 24.5605 51.315C24.5536 51.8088 24.6261 52.2993 24.7739 52.7587C24.9218 53.2181 25.1421 53.6373 25.4222 53.9925C25.7024 54.3476 26.0369 54.6317 26.4068 54.8285C31.6378 57.6104 37.0489 59.8911 42.5991 61.6354C43.5651 61.9361 44.5802 61.9361 45.5462 61.6354C51.0681 59.8945 56.4677 57.6167 61.6935 54.8235C62.4145 54.4052 62.9742 53.6595 63.254 52.7446C63.5338 51.8296 63.5117 50.8171 63.1925 49.9218C62.8732 49.0264 62.2818 48.3184 61.5435 47.9478C60.8053 47.5772 59.9783 47.5731 59.2377 47.9364C54.3382 50.5529 49.2709 52.6982 44.0726 54.3373C38.8696 52.698 33.7809 50.556 28.8544 47.9314Z" fill="#2A7AE4"/>
</svg>
